<?xml version="1.0" encoding="utf-8"?>
<!-- Generator: Adobe Illustrator 26.0.3, SVG Export Plug-In . SVG Version: 6.00 Build 0)  -->
<svg version="1.1" id="Layer_1" xmlns="http://www.w3.org/2000/svg" xmlns:xlink="http://www.w3.org/1999/xlink" x="0px" y="0px"
	 viewBox="0 0 260 260" style="enable-background:new 0 0 260 260;" xml:space="preserve">
<style type="text/css">
	.st0{fill:#68C0DF;}
	.st1{fill:#FFFFFF;}
	.st2{display:none;}
	.st3{display:inline;fill:#FFFFFF;}
</style>
<g id="Layer_2">
	<circle class="st0" cx="130" cy="130" r="130"/>
	<path class="st1" d="M152.9,260L93,224.3C93,224.3,156.1,33,224.3,0C224.3,0,178.4,62.1,152.9,260z"/>
	<path class="st1" d="M60.3,209l-44.8-31.4c0,0,47.8-140.6,114.2-171.2C129.8,6.5,89.7,64.8,60.3,209z"/>
</g>
<g class="st2">
	<path class="st3" d="M215.4-10.8c-0.3,0.3-0.8,1.4-2.3,2.8c-1.4,1.7-3.4,3.4-5.6,6.2c-1.1,1.4-2.5,2.8-3.7,4.5
		c-1.4,1.7-2.8,3.7-4.2,5.6c-1.7,2-3.1,4.2-4.8,6.8c-1.7,2.5-3.4,5.1-5.1,7.9c-7,11.3-14.6,25.3-21.7,41.4
		c-7.3,16-14.1,34-20.3,52.6c-12.1,37.1-21.1,76.2-26.4,105.5c-5.3,29.3-7.6,49-7.3,47.5c-0.6-0.3-1.1-0.8-1.4-1.4
		c-0.6-0.6-0.8-1.1-1.4-1.7c-0.8-1.1-2-2.3-2.8-3.4c-2-2.3-3.7-4.8-5.6-7.3c-3.7-5.1-7.3-10.1-10.7-15.2
		c12.1-49.8,28.1-98.7,48.4-143.5C150.7,75,162.2,53.9,174.9,35c6.5-9.3,12.9-18,20-26.2C201.3,1.5,208.4-5.2,215.4-10.8z"/>
	<path class="st3" d="M128.5,2.9c-0.6,1.4-7.9,13.8-16.3,32.9c-8.7,19.1-18.6,44.7-26.7,70.9C77,132.6,70.5,159.1,66,179.1
		s-6.8,33.2-6.8,33.2c-4.2-7-8.4-14.1-12.7-21.1c9.6-33.5,20.5-66.1,34-97.9C93.9,61.7,109.3,30.8,128.5,2.9z"/>
</g>
</svg>
