<?xml version="1.0" standalone="no"?>
<!DOCTYPE svg PUBLIC "-//W3C//DTD SVG 20010904//EN"
 "http://www.w3.org/TR/2001/REC-SVG-20010904/DTD/svg10.dtd">
<svg version="1.0" xmlns="http://www.w3.org/2000/svg"
 width="700.000000pt" height="700.000000pt" viewBox="0 0 700.000000 700.000000"
 preserveAspectRatio="xMidYMid meet">
<metadata>
Created by potrace 1.14, written by Peter Selinger 2001-2017
</metadata>
<g transform="translate(0.000000,700.000000) scale(0.100000,-0.100000)"
fill="#000000" stroke="none">
<path d="M3280 6994 c-19 -2 -84 -9 -145 -14 -639 -62 -1264 -315 -1795 -726
-149 -115 -481 -446 -595 -594 -410 -532 -653 -1132 -727 -1795 -17 -155 -17
-575 0 -730 75 -673 332 -1300 748 -1820 114 -143 339 -372 484 -494 537 -451
1164 -718 1885 -803 213 -25 759 -12 881 21 21 5 -104 83 -738 460 -420 250
-765 456 -767 458 -15 11 252 746 474 1303 749 1881 1541 3315 2273 4118 50
55 81 96 76 102 -19 19 -215 126 -322 177 -350 167 -704 269 -1102 319 -117
15 -552 27 -630 18z m173 -231 c-93 -148 -246 -435 -362 -680 -561 -1186
-1066 -2786 -1428 -4521 -27 -128 -42 -181 -50 -178 -10 4 -1175 817 -1192
832 -7 6 86 253 214 574 516 1287 1123 2374 1741 3115 133 159 412 442 554
560 124 103 353 257 465 313 44 22 82 39 84 37 2 -2 -10 -26 -26 -52z"/>
<path d="M5587 6133 c-376 -863 -728 -2044 -1016 -3403 -27 -129 -54 -260 -59
-290 -6 -30 -31 -161 -56 -290 -90 -469 -179 -1009 -260 -1575 -61 -424 -71
-504 -63 -512 4 -4 62 6 130 21 524 120 977 335 1404 668 138 107 389 351 512
498 451 538 717 1162 803 1885 16 139 16 595 0 730 -104 855 -445 1556 -1043
2141 -126 123 -276 254 -291 254 -3 0 -30 -57 -61 -127z"/>
</g>
</svg>
