<?xml version="1.0" encoding="utf-8"?>
<!-- Generator: Adobe Illustrator 26.0.3, SVG Export Plug-In . SVG Version: 6.00 Build 0)  -->
<svg version="1.1" id="Layer_1" xmlns="http://www.w3.org/2000/svg" xmlns:xlink="http://www.w3.org/1999/xlink" x="0px" y="0px"
	 viewBox="0 0 60 100" style="enable-background:new 0 0 60 100;" xml:space="preserve">
<style type="text/css">
	.st0{fill:#68C0DF;}
</style>
<g>
	<path class="st0" d="M60,0c-0.1,0.1-0.3,0.5-0.8,1c-0.5,0.6-1.2,1.2-2,2.2c-0.4,0.5-0.9,1-1.3,1.6c-0.5,0.6-1,1.3-1.5,2
		c-0.6,0.7-1.1,1.5-1.7,2.4c-0.6,0.9-1.2,1.8-1.8,2.8c-2.5,4-5.2,9-7.7,14.7c-2.6,5.7-5,12.1-7.2,18.7c-4.3,13.2-7.5,27.1-9.4,37.5
		c-1.9,10.4-2.7,17.4-2.6,16.9c-0.2-0.1-0.4-0.3-0.5-0.5c-0.2-0.2-0.3-0.4-0.5-0.6c-0.3-0.4-0.7-0.8-1-1.2c-0.7-0.8-1.3-1.7-2-2.6
		c-1.3-1.8-2.6-3.6-3.8-5.4c4.3-17.7,10-35.1,17.2-51c3.6-8,7.7-15.5,12.2-22.2c2.3-3.3,4.6-6.4,7.1-9.3C55,4.4,57.5,2,60,0z"/>
	<path class="st0" d="M29.1,4.9c-0.2,0.5-2.8,4.9-5.8,11.7c-3.1,6.8-6.6,15.9-9.5,25.2C10.8,51,8.5,60.4,6.9,67.5
		c-1.6,7.1-2.4,11.8-2.4,11.8c-1.5-2.5-3-5-4.5-7.5C3.4,59.9,7.3,48.3,12.1,37C16.8,25.8,22.3,14.8,29.1,4.9z"/>
</g>
</svg>
